<?xml version="1.0" encoding="UTF-8" standalone="no"?>
<svg
   xmlns:dc="http://purl.org/dc/elements/1.1/"
   xmlns:cc="http://creativecommons.org/ns#"
   xmlns:rdf="http://www.w3.org/1999/02/22-rdf-syntax-ns#"
   xmlns:svg="http://www.w3.org/2000/svg"
   xmlns="http://www.w3.org/2000/svg"
   xmlns:sodipodi="http://sodipodi.sourceforge.net/DTD/sodipodi-0.dtd"
   xmlns:inkscape="http://www.inkscape.org/namespaces/inkscape"
   sodipodi:docname="logo.svg"
   inkscape:version="1.0beta1 (32d4812, 2019-09-19)"
   id="svg8"
   version="1.1"
   viewBox="0 0 106.15326 13.39293"
   height="13.39293mm"
   width="106.15326mm">
  <defs
     id="defs2" />
  <sodipodi:namedview
     fit-margin-bottom="0"
     fit-margin-right="0"
     fit-margin-left="0"
     fit-margin-top="0"
     inkscape:window-maximized="0"
     inkscape:window-y="23"
     inkscape:window-x="0"
     inkscape:window-height="907"
     inkscape:window-width="1600"
     showgrid="false"
     inkscape:document-rotation="0"
     inkscape:current-layer="layer1"
     inkscape:document-units="mm"
     inkscape:cy="51.254919"
     inkscape:cx="26.547705"
     inkscape:zoom="5.1594238"
     inkscape:pageshadow="2"
     inkscape:pageopacity="0.0"
     borderopacity="1.0"
     bordercolor="#666666"
     pagecolor="#ffffff"
     id="base" />
  <metadata
     id="metadata5">
    <rdf:RDF>
      <cc:Work
         rdf:about="">
        <dc:format>image/svg+xml</dc:format>
        <dc:type
           rdf:resource="http://purl.org/dc/dcmitype/StillImage" />
        <dc:title></dc:title>
      </cc:Work>
    </rdf:RDF>
  </metadata>
  <g
     transform="translate(-0.34884792,0.15294666)"
     id="layer1"
     inkscape:groupmode="layer"
     inkscape:label="Layer 1">
    <g
       transform="matrix(1,0,0,1.1542397,0,-0.23618446)"
       style="font-size:10.5833px;line-height:1.25;font-family:fj;-inkscape-font-specification:fj;fill:#ffffff;stroke-width:0.264583"
       id="text12"
       aria-label="CustomDesigns">
      <path
         inkscape:connector-curvature="0"
         id="path922"
         style="font-weight:bold;fill:#ffffff;stroke-width:0.264583"
         d="m 19.587794,9.6393183 q -0.857826,0 -1.586462,-0.2532137 -0.723467,-0.2532137 -1.245398,-0.7544735 -0.52193,-0.5012598 -0.811317,-1.2505657 -0.28422,-0.7493059 -0.28422,-1.731155 0,-0.9146699 0.273885,-1.6588082 0.273884,-0.7441382 0.795814,-1.2764038 0.50126,-0.511595 1.240231,-0.7906469 0.744138,-0.2790518 1.622634,-0.2790518 0.485757,0 0.873329,0.056844 0.39274,0.051676 0.723468,0.1395259 0.346231,0.098185 0.625283,0.222208 0.284219,0.1188554 0.496092,0.2222079 V 4.1512987 H 22.083758 Q 21.939064,4.0272756 21.716856,3.8567439 21.499816,3.6862123 21.220764,3.5208482 20.936544,3.3554841 20.605816,3.2417964 20.275088,3.1281086 19.897851,3.1281086 q -0.418577,0 -0.795814,0.1343583 -0.377237,0.1291906 -0.69763,0.4340806 -0.30489,0.2945547 -0.496092,0.7803117 -0.186034,0.4857569 -0.186034,1.1782189 0,0.7234677 0.201537,1.2092246 0.206705,0.4857569 0.516763,0.7648088 0.315225,0.2842195 0.702797,0.4082425 0.387572,0.1188554 0.764809,0.1188554 0.361734,0 0.713132,-0.1085201 0.356566,-0.1085202 0.656289,-0.2945548 0.253213,-0.1498611 0.470254,-0.3203928 0.21704,-0.1705317 0.356566,-0.2945548 h 0.206705 v 1.8396752 q -0.289387,0.1291906 -0.552936,0.2428784 -0.263549,0.1136878 -0.552936,0.1963699 -0.377237,0.1085201 -0.707965,0.165364 -0.330728,0.056844 -0.909502,0.056844 z" />
      <path
         inkscape:connector-curvature="0"
         id="path924"
         style="font-weight:bold;fill:#ffffff;stroke-width:0.264583"
         d="M 29.457961,9.4894571 H 27.597615 V 8.8486714 q -0.516763,0.3927396 -0.945676,0.5994447 -0.428913,0.2015375 -1.02319,0.2015375 -0.961178,0 -1.483109,-0.5529361 Q 23.628878,8.5437814 23.628878,7.4637474 V 3.6862123 h 1.870681 v 2.8783681 q 0,0.4392483 0.02584,0.733803 0.031,0.2893871 0.134358,0.4805893 0.09819,0.1912022 0.294555,0.2790518 0.201537,0.08785 0.558103,0.08785 0.237711,0 0.527098,-0.08785 0.289387,-0.08785 0.558104,-0.2583813 V 3.6862123 h 1.860346 z" />
      <path
         inkscape:connector-curvature="0"
         id="path926"
         style="font-weight:bold;fill:#ffffff;stroke-width:0.264583"
         d="m 36.263725,7.649782 q 0,0.8991671 -0.806149,1.4521031 -0.80615,0.5477685 -2.206577,0.5477685 -0.775144,0 -1.405594,-0.1446936 Q 31.214954,9.3602665 30.83255,9.1845672 V 7.6549496 h 0.170531 q 0.139526,0.098185 0.320393,0.2170403 0.186035,0.1136878 0.521931,0.2480461 0.289387,0.1188555 0.656288,0.2067051 0.366902,0.082682 0.785479,0.082682 0.547769,0 0.811318,-0.1188554 0.263549,-0.124023 0.263549,-0.3617339 0,-0.2118727 -0.155029,-0.3048899 Q 34.051981,7.525759 33.617901,7.4379093 33.411196,7.3914007 33.054629,7.3397244 32.703231,7.2828805 32.413844,7.2053661 31.623197,6.998661 31.240792,6.5645804 30.858388,6.1253321 30.858388,5.4742111 q 0,-0.8371555 0.790647,-1.3900916 0.795814,-0.5581037 2.170403,-0.5581037 0.651121,0 1.245398,0.1343583 0.599445,0.1291907 0.935341,0.2790519 V 5.407032 H 35.83998 Q 35.42657,5.1228125 34.894304,4.9471132 34.367206,4.7662463 33.824606,4.7662463 q -0.449584,0 -0.759641,0.124023 -0.30489,0.124023 -0.30489,0.3513986 0,0.2067051 0.139525,0.3152253 0.139526,0.1085201 0.656289,0.2170403 0.28422,0.056844 0.60978,0.1136878 0.330728,0.051676 0.661456,0.1343583 0.733803,0.1912022 1.085202,0.6046123 0.351398,0.4082425 0.351398,1.0231901 z" />
      <path
         inkscape:connector-curvature="0"
         id="path928"
         style="font-weight:bold;fill:#ffffff;stroke-width:0.264583"
         d="m 41.21431,9.4377809 q -0.299722,0.077514 -0.635618,0.1188554 -0.335895,0.046509 -0.821652,0.046509 -1.085202,0 -1.617468,-0.4392483 Q 37.612474,8.7246484 37.612474,7.6601173 V 4.9471132 H 36.847666 V 3.6862123 h 0.764808 V 2.0274041 h 1.860346 v 1.6588082 h 1.74149 v 1.2609009 h -1.74149 v 2.0567155 q 0,0.3048899 0.0052,0.5322655 0.0052,0.2273756 0.08268,0.4082425 0.07235,0.180867 0.253213,0.2893871 0.186035,0.1033526 0.537434,0.1033526 0.144693,0 0.377236,-0.062012 0.237711,-0.062012 0.330729,-0.1136878 h 0.155028 z" />
      <path
         inkscape:connector-curvature="0"
         id="path930"
         style="font-weight:bold;fill:#ffffff;stroke-width:0.264583"
         d="m 48.252619,6.5904185 q 0,1.4314326 -0.837156,2.2582529 -0.831988,0.8216527 -2.340935,0.8216527 -1.508947,0 -2.346102,-0.8216527 -0.831988,-0.8268203 -0.831988,-2.2582529 0,-1.4417679 0.837155,-2.2634205 0.842323,-0.8216527 2.340935,-0.8216527 1.519283,0 2.346103,0.8268203 0.831988,0.8268203 0.831988,2.2582529 z M 45.96336,8.0011806 q 0.180867,-0.2222079 0.268717,-0.5322655 0.09302,-0.3152253 0.09302,-0.8681613 0,-0.5115951 -0.09302,-0.8578261 -0.09302,-0.346231 -0.258382,-0.552936 -0.165364,-0.2118727 -0.397907,-0.2997224 -0.232543,-0.08785 -0.50126,-0.08785 -0.268716,0 -0.480589,0.072347 -0.206705,0.072347 -0.397907,0.2893871 -0.170532,0.2015375 -0.273885,0.5529361 -0.09818,0.3513986 -0.09818,0.8836642 0,0.4754216 0.08785,0.8268202 0.08785,0.346231 0.258382,0.5581037 0.165364,0.2015375 0.392739,0.2945548 0.232543,0.093017 0.527098,0.093017 0.253214,0 0.480589,-0.082682 0.232544,-0.08785 0.39274,-0.2893871 z" />
      <path
         inkscape:connector-curvature="0"
         id="path932"
         style="font-weight:bold;fill:#ffffff;stroke-width:0.264583"
         d="M 55.270256,5.3760262 V 9.4894571 H 53.399575 V 6.5904185 q 0,-0.4237454 -0.02067,-0.7183001 -0.02067,-0.2997224 -0.113688,-0.4857569 -0.09302,-0.1860346 -0.284219,-0.2687166 -0.186035,-0.08785 -0.527098,-0.08785 -0.273884,0 -0.532266,0.1136878 -0.258381,0.1085202 -0.465086,0.2325432 V 9.4894571 H 49.596201 V 3.6862123 h 1.860346 V 4.326998 q 0.480589,-0.3772368 0.919838,-0.5891095 0.439248,-0.2118727 0.971513,-0.2118727 0.573607,0 1.012855,0.2583814 0.439248,0.2532137 0.687295,0.7493059 0.558103,-0.4702541 1.085201,-0.7389707 0.527098,-0.2687166 1.033526,-0.2687166 0.940508,0 1.426265,0.5632713 0.490924,0.5632714 0.490924,1.6226349 V 9.4894571 H 57.213283 V 6.5904185 q 0,-0.428913 -0.02067,-0.7234677 -0.0155,-0.2945548 -0.10852,-0.4805893 -0.08785,-0.1860346 -0.279052,-0.2687166 -0.191203,-0.08785 -0.537434,-0.08785 -0.232543,0 -0.454751,0.082682 -0.222208,0.077514 -0.5426,0.2635493 z" />
      <path
         inkscape:connector-curvature="0"
         id="path934"
         style="font-weight:bold;fill:#ffffff;stroke-width:0.264583"
         d="m 68.17382,5.6499104 q 0,1.0748664 -0.490925,1.9275248 -0.490924,0.8474908 -1.24023,1.302242 -0.563272,0.3410633 -1.235063,0.4754216 -0.671792,0.1343583 -1.591629,0.1343583 H 60.902969 V 1.7948609 h 2.790518 q 0.940508,0 1.622635,0.1601964 0.682127,0.1550288 1.147213,0.4444159 0.795815,0.4857569 1.250566,1.3125772 0.459919,0.8216527 0.459919,1.93786 z m -2.051548,-0.015503 q 0,-0.7596412 -0.279052,-1.2970744 Q 65.569336,3.7947324 64.969891,3.4898424 64.665001,3.3399813 64.344608,3.288305 64.029383,3.2314611 63.388597,3.2314611 h -0.50126 v 4.8162282 h 0.50126 q 0.707965,0 1.038693,-0.062012 0.330728,-0.067179 0.645954,-0.2377108 0.5426,-0.3100576 0.795814,-0.8268203 0.253214,-0.5219303 0.253214,-1.2867388 z" />
      <path
         inkscape:connector-curvature="0"
         id="path936"
         style="font-weight:bold;fill:#ffffff;stroke-width:0.264583"
         d="m 75.299977,6.9314819 h -4.258124 q 0.04134,0.6821267 0.516762,1.0438606 0.480589,0.3617339 1.410762,0.3617339 0.58911,0 1.142046,-0.2118727 0.552936,-0.2118727 0.873329,-0.4547512 h 0.206705 v 1.4934441 q -0.630451,0.2532138 -1.188554,0.3669015 -0.558104,0.1136878 -1.235063,0.1136878 -1.746658,0 -2.676831,-0.7854792 -0.930173,-0.7854793 -0.930173,-2.2375824 0,-1.4366003 0.878497,-2.2737558 0.883664,-0.8423232 2.418449,-0.8423232 1.41593,0 2.129062,0.7183001 0.713133,0.7131325 0.713133,2.0567155 z m -1.85001,-1.0903693 q -0.0155,-0.5839418 -0.289388,-0.8784965 -0.273884,-0.2945548 -0.852658,-0.2945548 -0.537433,0 -0.883664,0.2790519 -0.346231,0.2790518 -0.387572,0.8939994 z" />
      <path
         inkscape:connector-curvature="0"
         id="path938"
         style="font-weight:bold;fill:#ffffff;stroke-width:0.264583"
         d="m 81.656159,7.649782 q 0,0.8991671 -0.80615,1.4521031 -0.80615,0.5477685 -2.206577,0.5477685 -0.775144,0 -1.405594,-0.1446936 Q 76.607387,9.3602665 76.224983,9.1845672 V 7.6549496 h 0.170532 q 0.139526,0.098185 0.320392,0.2170403 0.186035,0.1136878 0.521931,0.2480461 0.289387,0.1188555 0.656288,0.2067051 0.366902,0.082682 0.78548,0.082682 0.547768,0 0.811317,-0.1188554 0.263549,-0.124023 0.263549,-0.3617339 0,-0.2118727 -0.155029,-0.3048899 Q 79.444414,7.525759 79.010334,7.4379093 78.803629,7.3914007 78.447062,7.3397244 78.095664,7.2828805 77.806277,7.2053661 77.01563,6.998661 76.633225,6.5645804 76.250821,6.1253321 76.250821,5.4742111 q 0,-0.8371555 0.790647,-1.3900916 0.795814,-0.5581037 2.170403,-0.5581037 0.651121,0 1.245398,0.1343583 0.599445,0.1291907 0.935341,0.2790519 V 5.407032 H 81.232413 Q 80.819003,5.1228125 80.286738,4.9471132 79.75964,4.7662463 79.217039,4.7662463 q -0.449584,0 -0.759641,0.124023 -0.30489,0.124023 -0.30489,0.3513986 0,0.2067051 0.139526,0.3152253 0.139526,0.1085201 0.656288,0.2170403 0.28422,0.056844 0.60978,0.1136878 0.330728,0.051676 0.661456,0.1343583 0.733803,0.1912022 1.085202,0.6046123 0.351399,0.4082425 0.351399,1.0231901 z" />
      <path
         inkscape:connector-curvature="0"
         id="path940"
         style="font-weight:bold;fill:#ffffff;stroke-width:0.264583"
         d="M 84.756737,9.4894571 H 82.896391 V 3.6862123 h 1.860346 z M 84.808413,2.859392 H 82.844715 V 1.4486299 h 1.963698 z" />
      <path
         inkscape:connector-curvature="0"
         id="path942"
         style="font-weight:bold;fill:#ffffff;stroke-width:0.264583"
         d="m 92.156772,8.8228333 q 0,0.816485 -0.232543,1.3745887 -0.232543,0.558104 -0.651121,0.873329 -0.418578,0.320393 -1.012855,0.459919 -0.589109,0.144693 -1.333248,0.144693 -0.604612,0 -1.193721,-0.07235 -0.583942,-0.07235 -1.012855,-0.175699 v -1.4521 h 0.227375 q 0.341064,0.134358 0.831988,0.242879 0.490925,0.113687 0.878497,0.113687 0.516763,0 0.837155,-0.09819 0.325561,-0.09302 0.496093,-0.2687162 0.160196,-0.1653641 0.232543,-0.4237454 0.07235,-0.2583813 0.07235,-0.6201152 V 8.812498 q -0.335896,0.2738842 -0.744139,0.4340807 -0.408242,0.1601964 -0.909502,0.1601964 -1.21956,0 -1.881016,-0.733803 -0.661456,-0.733803 -0.661456,-2.2324148 0,-0.7183001 0.201537,-1.2402304 0.201538,-0.5219303 0.568439,-0.9095023 0.341063,-0.3617339 0.837156,-0.5632713 0.501259,-0.2015375 1.02319,-0.2015375 0.470254,0 0.852658,0.1136878 0.387572,0.1085202 0.702797,0.30489 l 0.06718,-0.2583813 h 1.803502 z M 90.296427,7.6601173 V 5.0297952 q -0.160197,-0.067179 -0.39274,-0.1033525 -0.232543,-0.041341 -0.418578,-0.041341 -0.733803,0 -1.100704,0.4237454 -0.366902,0.4185777 -0.366902,1.1730512 0,0.8371556 0.310058,1.1678837 0.315225,0.3307281 0.930173,0.3307281 0.279051,0 0.547768,-0.08785 0.268717,-0.08785 0.490925,-0.2325428 z" />
      <path
         inkscape:connector-curvature="0"
         id="path944"
         style="font-weight:bold;fill:#ffffff;stroke-width:0.264583"
         d="M 99.742854,9.4894571 H 97.872173 V 6.611089 q 0,-0.3513986 -0.03617,-0.6976296 -0.03617,-0.3513986 -0.124023,-0.5167627 -0.103353,-0.1912022 -0.30489,-0.2790518 -0.19637,-0.08785 -0.552936,-0.08785 -0.253214,0 -0.516763,0.082682 -0.258381,0.082682 -0.563271,0.2635489 V 9.4894571 H 93.913771 V 3.6862123 h 1.860346 V 4.326998 q 0.496092,-0.387572 0.950843,-0.5942771 0.459919,-0.2067051 1.018022,-0.2067051 0.940509,0 1.467607,0.5477685 0.532265,0.5477684 0.532265,1.6381377 z" />
      <path
         inkscape:connector-curvature="0"
         id="path946"
         style="font-weight:bold;fill:#ffffff;stroke-width:0.264583"
         d="m 106.50211,7.649782 q 0,0.8991671 -0.80615,1.4521031 -0.80615,0.5477685 -2.20658,0.5477685 -0.77514,0 -1.40559,-0.1446936 -0.63046,-0.1446935 -1.01286,-0.3203928 V 7.6549496 h 0.17053 q 0.13953,0.098185 0.32039,0.2170403 0.18604,0.1136878 0.52194,0.2480461 0.28938,0.1188555 0.65628,0.2067051 0.36691,0.082682 0.78548,0.082682 0.54777,0 0.81132,-0.1188554 0.26355,-0.124023 0.26355,-0.3617339 0,-0.2118727 -0.15503,-0.3048899 -0.15503,-0.098185 -0.58911,-0.1860346 -0.2067,-0.046509 -0.56327,-0.098185 -0.3514,-0.056844 -0.64079,-0.1343583 -0.79064,-0.2067051 -1.17305,-0.6407857 -0.3824,-0.4392483 -0.3824,-1.0903693 0,-0.8371555 0.79065,-1.3900916 0.79581,-0.5581037 2.1704,-0.5581037 0.65112,0 1.2454,0.1343583 0.59944,0.1291907 0.93534,0.2790519 v 1.467606 h -0.1602 q -0.41341,-0.2842195 -0.94568,-0.4599188 -0.52709,-0.1808669 -1.06969,-0.1808669 -0.44959,0 -0.75965,0.124023 -0.30489,0.124023 -0.30489,0.3513986 0,0.2067051 0.13953,0.3152253 0.13953,0.1085201 0.65629,0.2170403 0.28422,0.056844 0.60978,0.1136878 0.33073,0.051676 0.66146,0.1343583 0.7338,0.1912022 1.0852,0.6046123 0.3514,0.4082425 0.3514,1.0231902 z" />
    </g>
    <g
       style="fill:#ffffff"
       transform="matrix(0.02396541,0,0,0.02396541,0.34873796,-0.1529391)"
       id="g1072">
      <path
         style="fill:#ffffff"
         inkscape:connector-curvature="0"
         d="m 173.933,260.349 c 43.512,12.195 74.688,46.546 86.6,84.725 11.41,-9.101 25.37,-20.421 40.77,-33.322 l -94.52,-94.525 c -12.75,16.311 -23.92,31.082 -32.85,43.122 z"
         id="path1056" />
      <path
         style="fill:#ffffff"
         inkscape:connector-curvature="0"
         d="m 451.653,0.355 c -72.596,7.632 -180.444,136.611 -226.09,193.23 l 98.67,98.675 C 379.782,244.358 508.023,129.738 511.903,56.917 513.787,21.955 486.551,-3.322 451.653,0.355 Z"
         id="path1058" />
      <path
         style="fill:#ffffff"
         inkscape:connector-curvature="0"
         d="M 52.465,326.937 C 8.759,381.57 45.347,430.324 4.12,473.794 c -7.179,7.569 -4.618,20.004 4.98,24.113 68.277,29.23 154.26,10.25 194.109,-31.767 37.467,-39.505 49.058,-107.533 3.602,-152.992 -43.809,-43.813 -117.297,-32.52 -154.346,13.789 z"
         id="path1060" />
    </g>
  </g>
</svg>
